<svg class="svg" id="visual" viewBox="0 0 900 600" width="900" height="600" xmlns="http://www.w3.org/2000/svg" xmlns:xlink="http://www.w3.org/1999/xlink" version="1.1">
    <rect x="0" y="0" width="900" height="600" fill="#00296b"></rect>
    <defs>
        <linearGradient id="grad1_0" x1="33.3%" y1="0%" x2="100%" y2="100%">
            <stop offset="20%" stop-color="#00296b" stop-opacity="1"></stop>
            <stop offset="80%" stop-color="#00296b" stop-opacity="1"></stop>
        </linearGradient>
    </defs>
    <defs>
        <linearGradient id="grad2_0" x1="0%" y1="0%" x2="66.7%" y2="100%">
            <stop offset="20%" stop-color="#00296b" stop-opacity="1"></stop>
            <stop offset="80%" stop-color="#00296b" stop-opacity="1"></stop>
        </linearGradient>
    </defs>
    <g transform="translate(900, 0)">
        <path class="wave" d="M0 486.7C-47 434.6 -93.9 382.4 -149.2 360.3C-204.6 338.3 -268.3 346.4 -323.1 323.1C-378 299.9 -423.9 245.4 -449.7 186.3C-475.5 127.2 -481.1 63.6 -486.7 0L0 0Z" fill="#fdc500"></path>
    </g>
    <g transform="translate(0, 600)">
        <path class="wave" d="M0 -351.5C28.8 -341.8 57.5 -332.1 87.2 -325.5C116.9 -318.9 147.6 -315.4 175 -303.1C202.4 -290.8 226.7 -269.6 246.1 -246.1C265.5 -222.6 280 -196.8 296.2 -171C312.3 -145.2 330.1 -119.5 339.6 -91C349.1 -62.5 350.3 -31.2 351.5 0L0 0Z" fill="#fdc500"></path>
    </g>
</svg>