<svg id="visual" viewBox="0 0 900 600" width="900" height="600" xmlns="http://www.w3.org/2000/svg" xmlns:xlink="http://www.w3.org/1999/xlink" version="1.1"><rect x="0" y="0" width="900" height="600" fill="#001220"></rect><defs><linearGradient id="grad1_0" x1="33.3%" y1="0%" x2="100%" y2="100%"><stop offset="20%" stop-color="#001220" stop-opacity="1"></stop><stop offset="80%" stop-color="#001220" stop-opacity="1"></stop></linearGradient></defs><defs><linearGradient id="grad2_0" x1="0%" y1="0%" x2="66.7%" y2="100%"><stop offset="20%" stop-color="#001220" stop-opacity="1"></stop><stop offset="80%" stop-color="#001220" stop-opacity="1"></stop></linearGradient></defs><g transform="translate(900, 0)"><path d="M0 486.7C-65 478.1 -130 469.5 -182.9 441.6C-235.9 413.8 -276.7 366.7 -323.1 323.1C-369.6 279.6 -421.5 239.5 -449.7 186.3C-477.9 133 -482.3 66.5 -486.7 0L0 0Z" fill="#FBAE3C"></path></g><g transform="translate(0, 600)"><path d="M0 -486.7C64 -481 128 -475.3 186.3 -449.7C244.6 -424.1 297.2 -378.5 326 -326C354.7 -273.4 359.7 -213.9 382.5 -158.4C405.3 -102.9 446 -51.5 486.7 0L0 0Z" fill="#FBAE3C"></path></g></svg>