<svg id="visual" viewBox="0 0 900 600" width="900" height="600" xmlns="http://www.w3.org/2000/svg" xmlns:xlink="http://www.w3.org/1999/xlink" version="1.1"><rect x="0" y="0" width="900" height="600" fill="#001220"></rect><defs><linearGradient id="grad1_0" x1="33.3%" y1="0%" x2="100%" y2="100%"><stop offset="20%" stop-color="#001220" stop-opacity="1"></stop><stop offset="80%" stop-color="#001220" stop-opacity="1"></stop></linearGradient></defs><defs><linearGradient id="grad2_0" x1="0%" y1="0%" x2="66.7%" y2="100%"><stop offset="20%" stop-color="#001220" stop-opacity="1"></stop><stop offset="80%" stop-color="#001220" stop-opacity="1"></stop></linearGradient></defs><g transform="translate(900, 0)"><path d="M0 486.7C-63.5 469.4 -127 452 -173.4 418.5C-219.7 385 -248.9 335.5 -297.7 297.7C-346.5 259.9 -414.9 233.9 -449.7 186.3C-484.5 138.6 -485.6 69.3 -486.7 0L0 0Z" fill="#FBAE3C"></path></g><g transform="translate(0, 600)"><path d="M0 -486.7C49.2 -436.5 98.3 -386.2 148.9 -359.4C199.4 -332.6 251.2 -329.2 306.2 -306.2C361.1 -283.2 419.1 -240.6 449.7 -186.3C480.3 -132 483.5 -66 486.7 0L0 0Z" fill="#FBAE3C"></path></g></svg>