<svg id="visual" viewBox="0 0 900 600" width="900" height="600" xmlns="http://www.w3.org/2000/svg" xmlns:xlink="http://www.w3.org/1999/xlink" version="1.1"><rect x="0" y="0" width="900" height="600" fill="#001220"></rect><defs><linearGradient id="grad1_0" x1="33.3%" y1="0%" x2="100%" y2="100%"><stop offset="20%" stop-color="#001220" stop-opacity="1"></stop><stop offset="80%" stop-color="#001220" stop-opacity="1"></stop></linearGradient></defs><defs><linearGradient id="grad2_0" x1="0%" y1="0%" x2="66.7%" y2="100%"><stop offset="20%" stop-color="#001220" stop-opacity="1"></stop><stop offset="80%" stop-color="#001220" stop-opacity="1"></stop></linearGradient></defs><g transform="translate(900, 0)"><path d="M0 486.7C-47 434.6 -93.9 382.4 -149.2 360.3C-204.6 338.3 -268.3 346.4 -323.1 323.1C-378 299.9 -423.9 245.4 -449.7 186.3C-475.5 127.2 -481.1 63.6 -486.7 0L0 0Z" fill="#FBAE3C"></path></g><g transform="translate(0, 600)"><path d="M0 -486.7C64.2 -481.1 128.4 -475.5 186.3 -449.7C244.2 -423.9 295.8 -377.9 326 -326C356.1 -274 364.8 -216.1 388 -160.7C411.2 -105.4 449 -52.7 486.7 0L0 0Z" fill="#FBAE3C"></path></g></svg>