<svg id="visual" viewBox="0 0 900 600" width="900" height="600" xmlns="http://www.w3.org/2000/svg" xmlns:xlink="http://www.w3.org/1999/xlink" version="1.1"><rect x="0" y="0" width="900" height="600" fill="#001220"></rect><defs><linearGradient id="grad1_0" x1="33.3%" y1="0%" x2="100%" y2="100%"><stop offset="20%" stop-color="#001220" stop-opacity="1"></stop><stop offset="80%" stop-color="#001220" stop-opacity="1"></stop></linearGradient></defs><defs><linearGradient id="grad2_0" x1="0%" y1="0%" x2="66.7%" y2="100%"><stop offset="20%" stop-color="#001220" stop-opacity="1"></stop><stop offset="80%" stop-color="#001220" stop-opacity="1"></stop></linearGradient></defs><g transform="translate(900, 0)"><path d="M0 486.7C-51.3 448.5 -102.6 410.2 -161.9 390.8C-221.2 371.4 -288.4 371 -340.1 340.1C-391.8 309.3 -427.9 248 -449.7 186.3C-471.5 124.5 -479.1 62.3 -486.7 0L0 0Z" fill="#FBAE3C"></path></g><g transform="translate(0, 600)"><path d="M0 -486.7C51.3 -454.3 102.6 -421.8 167.6 -404.7C232.7 -387.5 311.4 -385.7 344.2 -344.2C376.9 -302.6 363.6 -221.3 379.7 -157.3C395.8 -93.3 441.3 -46.6 486.7 0L0 0Z" fill="#FBAE3C"></path></g></svg>